<svg width="32" height="32" viewBox="0 0 32 32" fill="none" xmlns="http://www.w3.org/2000/svg">
<path d="M12 15.5601C12.3536 15.5601 12.6928 15.7005 12.9428 15.9506C13.1929 16.2006 13.3334 16.5398 13.3334 16.8934V19.5601C13.3334 19.9137 13.1929 20.2528 12.9428 20.5029C12.6928 20.7529 12.3536 20.8934 12 20.8934C11.6464 20.8934 11.3073 20.7529 11.0572 20.5029C10.8072 20.2528 10.6667 19.9137 10.6667 19.5601V16.8934C10.6667 16.5398 10.8072 16.2006 11.0572 15.9506C11.3073 15.7005 11.6464 15.5601 12 15.5601Z" fill="#F23F43"/>
<path fill-rule="evenodd" clip-rule="evenodd" d="M3.66669 3.58681C4.04153 3.16013 4.50293 2.81817 5.0202 2.58368C5.53747 2.34918 6.09875 2.22753 6.66669 2.22681H20C21.0609 2.22681 22.0783 2.64823 22.8284 3.39838C23.5786 4.14853 24 5.16594 24 6.22681V16.4135C24 17.0001 23.2667 17.3468 22.7334 17.1468C21.8783 16.8289 20.9402 16.8129 20.0747 17.1013C19.2093 17.3898 18.4684 17.9654 17.975 18.7327C17.4816 19.5 17.2653 20.413 17.362 21.3201C17.4587 22.2272 17.8626 23.0741 18.5067 23.7201L18.5334 23.7601C18.6247 23.8533 18.6867 23.9713 18.7117 24.0994C18.7366 24.2274 18.7235 24.36 18.6738 24.4807C18.6241 24.6014 18.5401 24.7048 18.4322 24.7782C18.3242 24.8516 18.1972 24.8916 18.0667 24.8935H18C17.8232 24.8935 17.6536 24.9637 17.5286 25.0887C17.4036 25.2138 17.3334 25.3833 17.3334 25.5601C17.3324 26.1358 17.1825 26.7013 16.8981 27.2018C16.6137 27.7022 16.2045 28.1205 15.7104 28.4159C15.2164 28.7112 14.6542 28.8736 14.0788 28.8872C13.5033 28.9008 12.9342 28.7652 12.4267 28.4935L4.69335 24.3735C4.07797 24.0245 3.56617 23.5185 3.21013 22.9071C2.8541 22.2958 2.66657 21.6009 2.66669 20.8935V6.22681C2.67177 5.25278 3.03208 4.31408 3.68002 3.58681H3.66669ZM5.40002 6.18681C5.39301 6.18482 5.38567 6.18429 5.37845 6.18525C5.37123 6.18621 5.36428 6.18864 5.35803 6.19238C5.35179 6.19613 5.34637 6.20112 5.34213 6.20704C5.33789 6.21296 5.3349 6.21969 5.33335 6.22681V20.8935C5.33335 21.3735 5.60002 21.8001 5.98669 22.0401L13.68 26.1468C13.7817 26.2024 13.8961 26.2306 14.0119 26.2285C14.1278 26.2265 14.2411 26.1942 14.3407 26.135C14.4403 26.0758 14.5228 25.9916 14.58 25.8908C14.6371 25.79 14.667 25.676 14.6667 25.5601V10.2535C14.665 10.1203 14.6234 9.99074 14.5473 9.88142C14.4713 9.7721 14.3643 9.68807 14.24 9.64014L5.40002 6.17347V6.18681Z" fill="#F23F43"/>
<path d="M20.4 21.8267C20.2074 21.57 20.1139 21.2524 20.1367 20.9322C20.1594 20.6121 20.2969 20.3109 20.5239 20.0839C20.7508 19.857 21.052 19.7195 21.3721 19.6967C21.6923 19.674 22.0099 19.7675 22.2667 19.9601L28 25.6801V20.8934C28 20.5398 28.1405 20.2006 28.3905 19.9506C28.6406 19.7005 28.9797 19.5601 29.3333 19.5601C29.687 19.5601 30.0261 19.7005 30.2761 19.9506C30.5262 20.2006 30.6667 20.5398 30.6667 20.8934V28.8934C30.6667 29.247 30.5262 29.5862 30.2761 29.8362C30.0261 30.0863 29.687 30.2267 29.3333 30.2267H21.3333C20.9797 30.2267 20.6406 30.0863 20.3905 29.8362C20.1405 29.5862 20 29.247 20 28.8934C20 28.5398 20.1405 28.2006 20.3905 27.9506C20.6406 27.7005 20.9797 27.5601 21.3333 27.5601H26.12L20.3867 21.8267H20.4Z" fill="#F23F43"/>
</svg>
